{
	"asset":{
		"generator":"Khronos glTF Blender I/O v4.3.47",
		"version":"2.0"
	},
	"scene":0,
	"scenes":[
		{
			"name":"Scene",
			"nodes":[
				0
			]
		}
	],
	"nodes":[
		{
			"mesh":0,
			"name":"Cube",
			"scale":[
				0.9500000476837158,
				1,
				1.2699997425079346
			],
			"translation":[
				-0.8690683841705322,
				2.3663043975830078e-05,
				0.23876476287841797
			]
		}
	],
	"materials":[
		{
			"doubleSided":true,
			"name":"Material.003",
			"pbrMetallicRoughness":{
				"baseColorFactor":[
					0.044909656047821045,
					0.015948379412293434,
					0,
					1
				],
				"metallicFactor":0,
				"roughnessFactor":0.5
			}
		},
		{
			"doubleSided":true,
			"name":"Material.002"
		}
	],
	"meshes":[
		{
			"name":"Cube.003",
			"primitives":[
				{
					"attributes":{
						"POSITION":0,
						"NORMAL":1,
						"TEXCOORD_0":2,
						"COLOR_0":3
					},
					"indices":4
				},
				{
					"attributes":{
						"POSITION":5,
						"NORMAL":6,
						"TEXCOORD_0":7,
						"COLOR_0":8
					},
					"indices":9,
					"material":0
				},
				{
					"attributes":{
						"POSITION":10,
						"NORMAL":11,
						"TEXCOORD_0":12,
						"COLOR_0":13
					},
					"indices":14,
					"material":1
				}
			]
		}
	],
	"accessors":[
		{
			"bufferView":0,
			"componentType":5126,
			"count":20,
			"max":[
				3.161914348602295,
				0.27477365732192993,
				1.3034517765045166
			],
			"min":[
				-3.186784267425537,
				0.1541757583618164,
				-1.2785817384719849
			],
			"type":"VEC3"
		},
		{
			"bufferView":1,
			"componentType":5126,
			"count":20,
			"type":"VEC3"
		},
		{
			"bufferView":2,
			"componentType":5126,
			"count":20,
			"type":"VEC2"
		},
		{
			"bufferView":3,
			"componentType":5123,
			"count":20,
			"normalized":true,
			"type":"VEC4"
		},
		{
			"bufferView":4,
			"componentType":5123,
			"count":24,
			"type":"SCALAR"
		},
		{
			"bufferView":5,
			"componentType":5126,
			"count":120,
			"max":[
				3.319932460784912,
				0.39040783047676086,
				1.4366698265075684
			],
			"min":[
				-3.319932460784912,
				-0.3498814105987549,
				-1.4365997314453125
			],
			"type":"VEC3"
		},
		{
			"bufferView":6,
			"componentType":5126,
			"count":120,
			"type":"VEC3"
		},
		{
			"bufferView":7,
			"componentType":5126,
			"count":120,
			"type":"VEC2"
		},
		{
			"bufferView":8,
			"componentType":5123,
			"count":120,
			"normalized":true,
			"type":"VEC4"
		},
		{
			"bufferView":9,
			"componentType":5123,
			"count":150,
			"type":"SCALAR"
		},
		{
			"bufferView":10,
			"componentType":5126,
			"count":6,
			"max":[
				3.161914348602295,
				0.27477365732192993,
				1.3034517765045166
			],
			"min":[
				-3.186784267425537,
				0.249903604388237,
				-1.2785817384719849
			],
			"type":"VEC3"
		},
		{
			"bufferView":11,
			"componentType":5126,
			"count":6,
			"type":"VEC3"
		},
		{
			"bufferView":12,
			"componentType":5126,
			"count":6,
			"type":"VEC2"
		},
		{
			"bufferView":13,
			"componentType":5123,
			"count":6,
			"normalized":true,
			"type":"VEC4"
		},
		{
			"bufferView":14,
			"componentType":5123,
			"count":6,
			"type":"SCALAR"
		}
	],
	"bufferViews":[
		{
			"buffer":0,
			"byteLength":240,
			"byteOffset":0,
			"target":34962
		},
		{
			"buffer":0,
			"byteLength":240,
			"byteOffset":240,
			"target":34962
		},
		{
			"buffer":0,
			"byteLength":160,
			"byteOffset":480,
			"target":34962
		},
		{
			"buffer":0,
			"byteLength":160,
			"byteOffset":640,
			"target":34962
		},
		{
			"buffer":0,
			"byteLength":48,
			"byteOffset":800,
			"target":34963
		},
		{
			"buffer":0,
			"byteLength":1440,
			"byteOffset":848,
			"target":34962
		},
		{
			"buffer":0,
			"byteLength":1440,
			"byteOffset":2288,
			"target":34962
		},
		{
			"buffer":0,
			"byteLength":960,
			"byteOffset":3728,
			"target":34962
		},
		{
			"buffer":0,
			"byteLength":960,
			"byteOffset":4688,
			"target":34962
		},
		{
			"buffer":0,
			"byteLength":300,
			"byteOffset":5648,
			"target":34963
		},
		{
			"buffer":0,
			"byteLength":72,
			"byteOffset":5948,
			"target":34962
		},
		{
			"buffer":0,
			"byteLength":72,
			"byteOffset":6020,
			"target":34962
		},
		{
			"buffer":0,
			"byteLength":48,
			"byteOffset":6092,
			"target":34962
		},
		{
			"buffer":0,
			"byteLength":48,
			"byteOffset":6140,
			"target":34962
		},
		{
			"buffer":0,
			"byteLength":12,
			"byteOffset":6188,
			"target":34963
		}
	],
	"buffers":[
		{
			"byteLength":6200,
			"uri":"table.bin"
		}
	]
}
